[Header]
FileType HTR
DataType HTRS
FileVersion 1
NumSegments 22
NumFrames 7
DataFrameRate 24
EulerRotationOrder ZYX
CalibrationUnits mm
RotationUnits Degrees
GlobalAxisofGravity Y
BoneLengthAxis Y
ScaleFactor 1.0
[SegmentNames&Hierarchy]
reference	GLOBAL
Hips	reference
Spine	Hips
Spine1	Spine
Neck	Spine1
Head	Neck
LeftShoulder	Spine1
LeftArm	LeftShoulder
LeftForeArm	LeftArm
LeftHand	LeftForeArm
RightShoulder	Spine1
RightArm	RightShoulder
RightForeArm	RightArm
RightHand	RightForeArm
LeftUpLeg	Hips
LeftLeg	LeftUpLeg
LeftFoot	LeftLeg
LeftToeBase	LeftFoot
RightUpLeg	Hips
RightLeg	RightUpLeg
RightFoot	RightLeg
RightToeBase	RightFoot
[BasePosition]
reference	0	0	0	0	0	0	1
Hips	0	0	0	0	0	0	1
Spine	0	0	0	-0	-90	0	1
Spine1	0	0	0	0	0	0	1
Neck	0	0	0	82.64767223	-82.64767223	-90	1
Head	0	0	0	-0	-90	0	1
LeftShoulder	0	0	0	0	0	0	1
LeftArm	0	0	0	0	0	0	1
LeftForeArm	0	0	0	0	0	0	1
LeftHand	0	0	0	0	0	0	1
RightShoulder	0	0	0	0	-0	180	1
RightArm	0	0	0	0	-0	180	1
RightForeArm	0	0	0	0	-0	180	1
RightHand	0	0	0	0	-0	180	1
LeftUpLeg	0	0	0	-0	90	0	1
LeftLeg	0	0	0	-0	90	0	1
LeftFoot	0	0	0	-23.42853957	23.42853957	-90	1
LeftToeBase	0	0	0	0	-0	-90	1
RightUpLeg	0	0	0	-0	90	0	1
RightLeg	0	0	0	-0	90	0	1
RightFoot	0	0	0	-23.42853957	23.42853957	-90	1
RightToeBase	0	0	0	0	-0	-90	1
[reference]
30	0	0	0	0	-0	0	1.0
31	0	0	0	0	-0	0	1.0
32	0	0	0	0	-0	0	1.0
33	0	0	0	0	-0	0	1.0
34	0	0	0	0	-0	0	1.0
35	0	0	0	0	-0	0	1.0
36	0	0	0	0	-0	0	1.0
[Hips]
30	5.19536972	-0.1693199873	8.00755024	2.642918825	2.263810635	-130.3264465	1.0
31	5.19536972	-0.1693199873	8.00755024	3.335152626	1.794476628	-129.0253754	1.0
32	5.19536972	-0.1693199873	8.00755024	3.357396603	1.504382372	-128.2106628	1.0
33	5.19536972	-0.1693199873	8.00755024	2.576635361	1.525877476	-127.4684753	1.0
34	5.19536972	-0.1693199873	8.00755024	2.154809952	1.999402642	-127.4809723	1.0
35	5.19536972	-0.1693199873	8.00755024	1.698705435	2.828094721	-127.8466492	1.0
36	5.19536972	-0.1693199873	8.00755024	1.339532614	3.23928833	-127.4002686	1.0
[Spine]
30	0	0	0.7457100153	-114.8325195	97.17444611	-111.2614899	1.0
31	0	0	0.7457100153	-109.6525497	97.0753479	-106.1413422	1.0
32	0	0	0.7457100153	-109.781929	96.74015808	-106.2791519	1.0
33	0	0	0.7457100153	-112.1856537	96.32673645	-108.7077026	1.0
34	0	0	0.7457100153	-116.2082062	96.34571838	-112.7570724	1.0
35	0	0	0.7457100153	-120.7622833	97.3049469	-117.3350983	1.0
36	0	0	0.7457100153	-121.9804077	98.0855484	-118.7418213	1.0
[Spine1]
30	0	0	2.140589952	8.361358643	-0.2907286286	2.182795763	1.0
31	0	0	2.140589952	8.038432121	-0.6941197515	2.198182344	1.0
32	0	0	2.140589952	8.289476395	-0.5160707235	2.101392746	1.0
33	0	0	2.140589952	9.2820158	-0.833563447	1.910668492	1.0
34	0	0	2.140589952	9.505540848	-1.198212504	1.828232765	1.0
35	0	0	2.140589952	9.090947151	-1.198185921	2.032728672	1.0
36	0	0	2.140589952	8.221403122	-0.9790000319	2.258899689	1.0
[Neck]
30	0	0	2.32246995	89.8565979	82.0854187	114.067276	1.0
31	0	0	2.32246995	90.31707764	82.09535217	115.9197617	1.0
32	0	0	2.32246995	100.5813828	81.75622559	125.4349976	1.0
33	0	0	2.32246995	101.8040237	81.31079865	126.354126	1.0
34	0	0	2.32246995	102.2903976	80.92087555	126.4929276	1.0
35	0	0	2.32246995	102.6759949	80.95827484	125.1962891	1.0
36	0	0	2.32246995	107.8058853	81.35061646	128.6614075	1.0
[Head]
30	0	-0.1818799973	1.409579992	-34.15203094	91.11248779	-30.24095726	1.0
31	0	-0.1818799973	1.409579992	-15.42499828	92.78053284	-13.08299351	1.0
32	0	-0.1818799973	1.409579992	-14.76795387	89.58680725	-10.59877396	1.0
33	0	-0.1818799973	1.409579992	76.34503174	89.55094147	80.75827789	1.0
34	0	-0.1818799973	1.409579992	113.0058365	89.06088257	117.3463287	1.0
35	0	-0.1818799973	1.409579992	135.1864471	88.65963745	139.8345947	1.0
36	0	-0.1818799973	1.409579992	159.9899292	89.96672058	164.4595337	1.0
[LeftShoulder]
30	0.3668199778	0.02662999928	1.946700096	-9.560504913	0.7036738396	-10.82108784	1.0
31	0.3668199778	0.02662999928	1.946700096	-9.330663681	0.9166325331	-10.78176117	1.0
32	0.3668199778	0.02662999928	1.946700096	-9.524482727	0.8949787617	-10.78365707	1.0
33	0.3668199778	0.02662999928	1.946700096	-8.573770523	1.072958827	-10.57119274	1.0
34	0.3668199778	0.02662999928	1.946700096	-7.960028648	1.143500686	-10.07361031	1.0
35	0.3668199778	0.02662999928	1.946700096	-7.696072578	0.6303583384	-9.632130623	1.0
36	0.3668199778	0.02662999928	1.946700096	-7.370212078	0.07456243038	-9.788301468	1.0
[LeftArm]
30	1.140689969	0	0	75.32886505	61.90304565	54.38339615	1.0
31	1.140689969	0	0	73.64186859	60.10825348	54.69158554	1.0
32	1.140689969	0	0	73.1257019	59.01938629	55.37585449	1.0
33	1.140689969	0	0	70.7026062	57.91495132	56.40207291	1.0
34	1.140689969	0	0	69.34732056	57.40464783	57.25666809	1.0
35	1.140689969	0	0	67.5019989	56.6848526	58.46063995	1.0
36	1.140689969	0	0	67.50753784	56.77761459	58.94276428	1.0
[LeftForeArm]
30	2.749800205	0	0	-11.90078354	4.047515869	-6.566137314	1.0
31	2.749800205	0	0	-10.38858414	4.511198521	-4.120586395	1.0
32	2.749800205	0	0	-10.34059811	4.7289958	-3.323250771	1.0
33	2.749800205	0	0	-11.01325893	5.136705399	-3.125179291	1.0
34	2.749800205	0	0	-11.23487663	5.447061539	-4.01113987	1.0
35	2.749800205	0	0	-9.860429764	6.733658314	-5.439469337	1.0
36	2.749800205	0	0	-8.565893173	7.695804119	-6.670710564	1.0
[LeftHand]
30	2.295179844	0	0	-11.66937065	-1.156131506	-0.164394632	1.0
31	2.295179844	0	0	-10.24816418	-2.005088806	1.328916073	1.0
32	2.295179844	0	0	-10.2322731	-2.237653732	1.570101976	1.0
33	2.295179844	0	0	-10.87260246	-0.3928679526	-0.1178350002	1.0
34	2.295179844	0	0	-11.05897903	1.131286502	-1.541754127	1.0
35	2.295179844	0	0	-9.604955673	2.926606178	-2.613473177	1.0
36	2.295179844	0	0	-8.220963478	3.934494019	-3.030939579	1.0
[RightShoulder]
30	-0.3601199985	0.02662999928	1.946700096	-5.987892151	6.316610813	-174.4133453	1.0
31	-0.3601199985	0.02662999928	1.946700096	-6.005331039	6.557774544	-174.605896	1.0
32	-0.3601199985	0.02662999928	1.946700096	-6.314758301	6.527795792	-174.5021667	1.0
33	-0.3601199985	0.02662999928	1.946700096	-6.278256416	6.401782513	-174.2551727	1.0
34	-0.3601199985	0.02662999928	1.946700096	-6.388382435	6.644533634	-174.3041382	1.0
35	-0.3601199985	0.02662999928	1.946700096	-6.258086205	6.797502518	-174.440979	1.0
36	-0.3601199985	0.02662999928	1.946700096	-6.169542789	6.88147831	-174.7486572	1.0
[RightArm]
30	-1.140689969	0	0	-8.349079132	-82.90855408	-103.9079285	1.0
31	-1.140689969	0	0	-10.89176369	-81.92869568	-100.6239014	1.0
32	-1.140689969	0	0	-7.654393196	-81.23085022	-103.9020157	1.0
33	-1.140689969	0	0	-0.1708084345	-78.10321045	-111.9597168	1.0
34	-1.140689969	0	0	2.710938454	-76.65676117	-114.0952148	1.0
35	-1.140689969	0	0	7.231206894	-75.74459076	-117.349823	1.0
36	-1.140689969	0	0	11.58633041	-76.28161621	-120.936203	1.0
[RightForeArm]
30	-2.749800205	0	0	-0.1462001801	6.087275028	-161.5164795	1.0
31	-2.749800205	0	0	1.681928992	8.316604614	-156.1621399	1.0
32	-2.749800205	0	0	3.108375549	8.719343185	-152.6454163	1.0
33	-2.749800205	0	0	6.64449501	6.993589878	-145.1690369	1.0
34	-2.749800205	0	0	8.064740181	5.842718124	-141.8911743	1.0
35	-2.749800205	0	0	8.485853195	5.233949184	-138.6770782	1.0
36	-2.749800205	0	0	8.51723671	5.445224762	-137.5406799	1.0
[RightHand]
30	-2.295179844	0	0	-0.4315189719	8.483108521	-170.3578186	1.0
31	-2.295179844	0	0	0.8481131792	8.916269302	-168.2539978	1.0
32	-2.295179844	0	0	1.968858957	8.776443481	-167.1188965	1.0
33	-2.295179844	0	0	5.473526001	7.943179607	-165.3158569	1.0
34	-2.295179844	0	0	7.105678558	7.852385521	-164.6443787	1.0
35	-2.295179844	0	0	7.581670761	7.796793938	-164.3587494	1.0
36	-2.295179844	0	0	7.388306141	7.235834122	-164.4735718	1.0
[LeftUpLeg]
30	0.9094099998	0	0	249.4541779	-92.19908142	-271.5654602	1.0
31	0.9094099998	0	0	273.0469055	-94.67729187	-297.9622192	1.0
32	0.9094099998	0	0	267.8450623	-96.76018524	-293.6826782	1.0
33	0.9094099998	0	0	263.7271729	-97.43930054	-288.5016174	1.0
34	0.9094099998	0	0	265.1118164	-95.6322937	-288.0052795	1.0
35	0.9094099998	0	0	282.4121094	-94.96295166	-302.2108765	1.0
36	0.9094099998	0	0	294.5219116	-96.26594543	-312.1651917	1.0
[LeftLeg]
30	0	0	-4.498080254	85.26764679	-76.26727295	-50.64092636	1.0
31	0	0	-4.498080254	78.37814331	-70.57392883	-44.8344841	1.0
32	0	0	-4.498080254	75.71456146	-71.15950775	-43.39700317	1.0
33	0	0	-4.498080254	76.99821472	-74.4868927	-50.21335983	1.0
34	0	0	-4.498080254	82.92604828	-76.22000122	-61.44360733	1.0
35	0	0	-4.498080254	65.14859772	-83.21434021	-52.04450226	1.0
36	0	0	-4.498080254	8.323807716	-87.09654999	-1.290197134	1.0
[LeftFoot]
30	0	0	-3.729400158	-63.7144928	-8.545719147	113.9488678	1.0
31	0	0	-3.729400158	-60.4964447	-5.120473862	118.3034897	1.0
32	0	0	-3.729400158	-59.12699127	-6.096580505	118.4036102	1.0
33	0	0	-3.729400158	-58.17341232	-9.014554024	115.7429428	1.0
34	0	0	-3.729400158	-57.99344635	-10.96336937	115.1832047	1.0
35	0	0	-3.729400158	-54.26544189	-16.6524353	108.3004761	1.0
36	0	0	-3.729400158	-48.62392807	-13.40017223	97.03735352	1.0
[LeftToeBase]
30	0	-1.364109993	-0.5911099911	9.999999975e-007	9.999999975e-007	1.745329176e-014	1.0
31	0	-1.364109993	-0.5911099911	9.999999975e-007	9.999999975e-007	1.745329176e-014	1.0
32	0	-1.364109993	-0.5911099911	9.999999975e-007	9.999999975e-007	1.745329176e-014	1.0
33	0	-1.364109993	-0.5911099911	9.999999975e-007	9.999999975e-007	1.745329176e-014	1.0
34	0	-1.364109993	-0.5911099911	9.999999975e-007	9.999999975e-007	1.745329176e-014	1.0
35	0	-1.364109993	-0.5911099911	9.999999975e-007	9.999999975e-007	1.745329176e-014	1.0
36	0	-1.364109993	-0.5911099911	9.999999975e-007	9.999999975e-007	1.745329176e-014	1.0
[RightUpLeg]
30	-0.9094099998	0	0	-81.6282959	-105.977951	92.29832458	1.0
31	-0.9094099998	0	0	-74.64683533	-102.8868408	86.2618103	1.0
32	-0.9094099998	0	0	-70.83255005	-101.9657288	82.59594727	1.0
33	-0.9094099998	0	0	-61.19320679	-100.3449783	73.42550659	1.0
34	-0.9094099998	0	0	-57.59102249	-99.86750793	69.91218567	1.0
35	-0.9094099998	0	0	-53.04000092	-99.70133972	65.22982025	1.0
36	-0.9094099998	0	0	-46.25492477	-99.67462158	58.19022369	1.0
[RightLeg]
30	0	0	-4.498080254	44.93045044	-82.96650696	-21.18058205	1.0
31	0	0	-4.498080254	39.04089737	-88.23390198	-22.21201324	1.0
32	0	0	-4.498080254	75.25141907	-87.00268555	-60.91761017	1.0
33	0	0	-4.498080254	87.41881561	-87.44895172	-76.21731567	1.0
34	0	0	-4.498080254	9.009315491	-91.77213287	1.123466015	1.0
35	0	0	-4.498080254	60.88221359	-94.47819519	-51.97445297	1.0
36	0	0	-4.498080254	32.31592941	-93.01168823	-24.71698189	1.0
[RightFoot]
30	0	0	-3.729400158	-62.52550125	-17.48669052	121.9401016	1.0
31	0	0	-3.729400158	-62.82323456	-20.64279938	109.1114349	1.0
32	0	0	-3.729400158	-63.88901138	-20.13460541	107.2667313	1.0
33	0	0	-3.729400158	-65.99919891	-19.97444534	100.9413986	1.0
34	0	0	-3.729400158	-65.92987823	-20.70618439	95.26580048	1.0
35	0	0	-3.729400158	-65.44915771	-20.89731026	90.83082581	1.0
36	0	0	-3.729400158	-64.68560028	-20.18470764	91.1578598	1.0
[RightToeBase]
30	0	-1.364109993	-0.5911099911	-9.999999975e-007	0	1.999999995e-006	1.0
31	0	-1.364109993	-0.5911099911	-9.999999975e-007	0	1.999999995e-006	1.0
32	0	-1.364109993	-0.5911099911	-9.999999975e-007	0	1.999999995e-006	1.0
33	0	-1.364109993	-0.5911099911	-9.999999975e-007	0	1.999999995e-006	1.0
34	0	-1.364109993	-0.5911099911	-9.999999975e-007	0	1.999999995e-006	1.0
35	0	-1.364109993	-0.5911099911	-9.999999975e-007	0	1.999999995e-006	1.0
36	0	-1.364109993	-0.5911099911	-9.999999975e-007	0	1.999999995e-006	1.0
[EndOfFile]
